<?xml version="1.0"?>
<svg xmlns="http://www.w3.org/2000/svg" width="275.3pt" height="68.1pt" viewBox="68.5 53.85 275.3 68.15" version="1.1">
<g id="vidusa-wordmark">
<path style=" stroke:none;fill-rule:nonzero;fill:rgb(0%,33.332825%,64.704895%);fill-opacity:1;" d="M 82.824219 55.152344 L 92.207031 103.609375 L 92.492188 103.609375 L 102.339844 55.152344 L 116.195313 55.152344 L 100.949219 120.679688 L 83.75 120.679688 L 68.5 55.152344 "></path>
<path style=" stroke:none;fill-rule:nonzero;fill:rgb(0%,33.332825%,64.704895%);fill-opacity:1;" d="M 121.773438 120.679688 L 135.15625 120.679688 L 135.15625 55.152344 L 121.773438 55.152344 Z M 121.773438 120.679688 "></path>
<path style=" stroke:none;fill-rule:nonzero;fill:rgb(0%,33.332825%,64.704895%);fill-opacity:1;" d="M 159.144531 110.949219 L 165.101563 110.949219 C 174.398438 110.949219 176.246094 105.167969 176.246094 87.367188 C 176.246094 72.492188 175.042969 64.886719 164.8125 64.886719 L 159.144531 64.886719 Z M 145.761719 55.152344 L 167.695313 55.152344 C 186.289063 55.152344 189.640625 67.71875 189.640625 87.007813 C 189.640625 110.214844 184.617188 120.679688 166.863281 120.679688 L 145.761719 120.679688 "></path>
<path style=" stroke:none;fill-rule:nonzero;fill:rgb(0%,33.332825%,64.704895%);fill-opacity:1;" d="M 211.019531 55.152344 L 211.019531 100.855469 C 211.019531 107.375 212.59375 112.226563 218.824219 112.226563 C 225.054688 112.226563 226.640625 107.375 226.640625 100.855469 L 226.640625 55.152344 L 240.027344 55.152344 L 240.027344 100.855469 C 240.027344 117.554688 229.703125 121.964844 218.824219 121.964844 C 207.945313 121.964844 197.628906 118.382813 197.628906 100.855469 L 197.628906 55.152344 "></path>
<path style=" stroke:none;fill-rule:nonzero;fill:rgb(0%,33.332825%,64.704895%);fill-opacity:1;" d="M 259.28125 100.214844 L 259.28125 102.140625 C 259.28125 108.292969 261.03125 112.226563 268.109375 112.226563 C 272.191406 112.226563 276.101563 109.667969 276.101563 104.15625 C 276.101563 98.1875 273.035156 95.988281 264.199219 92.964844 C 252.308594 88.929688 246.8125 84.0625 246.8125 73.136719 C 246.8125 60.386719 254.71875 53.867188 267.367188 53.867188 C 279.257813 53.867188 287.910156 58.90625 287.910156 71.484375 L 287.910156 73.328125 L 275.074219 73.328125 C 275.074219 67.183594 272.9375 63.589844 267.820313 63.589844 C 261.773438 63.589844 260.199219 67.367188 260.199219 71.207031 C 260.199219 75.25 261.40625 77.726563 267.078125 80.113281 L 277.40625 84.527344 C 287.441406 88.828125 290.042969 93.875 290.042969 101.867188 C 290.042969 115.71875 281.492188 121.964844 266.996094 121.964844 C 251.835938 121.964844 245.878906 114.988281 245.878906 102.878906 L 245.878906 100.214844 "></path>
<path style=" stroke:none;fill-rule:nonzero;fill:rgb(0%,33.332825%,64.704895%);fill-opacity:1;" d="M 311.425781 95.988281 L 324.445313 95.988281 L 318.03125 66.53125 L 317.839844 66.53125 Z M 309.660156 55.152344 L 326.214844 55.152344 L 343.785156 120.679688 L 329.832031 120.679688 L 326.761719 106.820313 L 309.097656 106.820313 L 306.035156 120.679688 L 292.09375 120.679688 "></path>
</g>
</svg>