<svg xmlns="http://www.w3.org/2000/svg" fill="none" viewBox="0 0 166 22" height="22" width="166">
<g clip-path="url(#clip0_2941_229329)">
<path fill="black" d="M56.2791 6.30064H62.9647V12.7024C62.9647 14.3694 61.6134 15.7242 59.9429 15.7242C59.0881 15.7242 58.322 15.3696 57.7723 14.8021L55.3995 17.0968C56.5487 18.2885 58.1589 19.0298 59.9464 19.0298C63.4364 19.0298 66.2666 16.1995 66.2666 12.706V2.99866H56.2827V6.30064H56.2791Z"></path>
<path fill="black" d="M49.7922 2.99866H46.054L40.6559 19.0227H44.4012L45.5113 15.7207H50.3348L51.445 19.0227H55.1903L49.7922 2.99866ZM46.625 12.4223L47.9266 8.54925L49.2283 12.4223H46.625Z"></path>
<path fill="black" d="M32.1119 11.5001L28.7177 2.99866H24.8092V19.0262H28.1076V10.0389L30.3988 15.7845H33.8249L36.1161 10.0389V19.0262H39.4181V2.99866H35.5096L32.1119 11.5001Z"></path>
<path fill="black" d="M75.5164 2.99866H71.7782L66.3801 19.0227H70.1254L71.2356 15.7207H76.0591L77.1692 19.0227H80.9145L75.5164 2.99866ZM72.3492 12.4223L73.6509 8.54925L74.9525 12.4223H72.3492Z"></path>
<path fill="black" d="M80.9181 4.21163C80.9181 3.53776 80.379 2.99866 79.6767 2.99866C78.9745 2.99866 78.4247 3.53776 78.4247 4.21163C78.4247 4.8855 78.978 5.43879 79.6767 5.43879C80.3754 5.43879 80.9181 4.89969 80.9181 4.21163ZM78.7369 4.21163C78.7369 3.67962 79.1376 3.24338 79.6767 3.24338C80.2158 3.24338 80.6095 3.67962 80.6095 4.21872C80.6095 4.75782 80.2158 5.17988 79.6838 5.17988C79.1518 5.17988 78.7369 4.75073 78.7369 4.21163Z"></path>
<path fill="black" d="M79.8683 4.55212C79.9037 4.69398 79.9286 4.80393 79.964 4.84649H80.2655C80.2371 4.80393 80.2123 4.72945 80.1768 4.54148C80.1414 4.37833 80.074 4.28966 79.9534 4.2471V4.23291C80.1023 4.19035 80.2052 4.08395 80.2052 3.95272C80.2052 3.83568 80.152 3.73992 80.0882 3.68672C79.9995 3.63352 79.8966 3.59805 79.6661 3.59805C79.4675 3.59805 79.3114 3.61224 79.2015 3.63352V4.84649H79.4817V4.35705H79.6164C79.7725 4.35705 79.847 4.41734 79.8683 4.54857M79.4888 4.16198V3.8144C79.5171 3.80731 79.5703 3.80022 79.6448 3.80022C79.8222 3.80022 79.9037 3.8747 79.9037 3.98464C79.9037 4.10878 79.7796 4.16198 79.6235 4.16198H79.4888Z"></path>
<path fill="black" d="M20.6986 11.0107C18.1272 11.532 15.1196 11.4079 13.286 8.08108C11.8921 5.54873 11.4488 2.52339 11.0586 1.15436C10.9983 0.938011 10.9239 0.760676 10.86 0.654275C10.7855 0.526593 10.6153 0.484033 10.516 0.615261C10.4805 0.661368 10.4983 0.771316 10.4983 0.771316C11.0196 3.34268 10.938 6.34674 7.55449 8.19102C5.00796 9.57779 0.985993 10.1843 0.120597 10.617C-0.0141777 10.6844 -0.0425513 10.8546 0.0673966 10.9575C0.124144 11.0107 0.244732 10.9823 0.244732 10.9823C2.81609 10.4609 5.82015 10.546 7.66444 13.926C9.25691 16.845 9.59739 20.3456 10.0585 21.3245C10.0585 21.3245 10.1649 21.5727 10.4096 21.406C10.4592 21.3706 10.4663 21.2961 10.4521 21.2323C9.93078 18.6609 10.0124 15.6568 13.3959 13.8126C14.1265 13.4153 16.0347 12.6989 16.2226 12.6421C18.2904 11.9895 20.1772 11.7235 20.8192 11.4079C20.9504 11.344 20.961 11.1667 20.8653 11.0674C20.7943 10.9929 20.695 11.0107 20.695 11.0107"></path>
<path fill="black" d="M90.3984 11.039C90.2247 10.9185 90.0438 10.8227 89.8558 10.7518C89.6678 10.6808 89.4976 10.6241 89.3415 10.5851L88.7421 10.4255C88.6322 10.3971 88.5116 10.3581 88.3839 10.312C88.2527 10.2659 88.1286 10.2056 88.0115 10.1311C87.8945 10.0566 87.7952 9.96439 87.7207 9.85089C87.6462 9.7374 87.6072 9.60262 87.6072 9.44657C87.6072 9.25859 87.6604 9.0919 87.7703 8.94294C87.8767 8.79398 88.0292 8.68048 88.2243 8.59536C88.4194 8.51024 88.6464 8.46768 88.9053 8.46768C89.2635 8.46768 89.5614 8.54925 89.8097 8.70885C90.0544 8.872 90.1963 9.09545 90.2282 9.38628H90.9198C90.9092 9.08835 90.817 8.82235 90.6467 8.59181C90.4729 8.35773 90.2388 8.1733 89.9445 8.03853C89.6501 7.90375 89.3132 7.83636 88.9337 7.83636C88.5542 7.83636 88.2172 7.90375 87.9158 8.04207C87.6107 8.1804 87.3696 8.37192 87.1922 8.61664C87.0113 8.86491 86.9227 9.15219 86.9227 9.48204C86.9227 9.87927 87.0575 10.1985 87.3235 10.4432C87.593 10.6879 87.9548 10.8759 88.4158 11.0107L89.1394 11.2164C89.3451 11.2731 89.5401 11.3405 89.7175 11.4185C89.8948 11.4966 90.0402 11.5959 90.1502 11.7165C90.2601 11.837 90.3133 11.9966 90.3133 12.1953C90.3133 12.4081 90.2495 12.596 90.1218 12.7556C89.9941 12.9152 89.8239 13.0394 89.6075 13.128C89.3912 13.2167 89.1465 13.2628 88.8734 13.2628C88.6393 13.2628 88.4229 13.2274 88.2208 13.1564C88.0186 13.0855 87.8519 12.9791 87.7207 12.8337C87.5895 12.6883 87.515 12.5074 87.4937 12.2839H86.756C86.7808 12.6067 86.8766 12.8904 87.0539 13.1316C87.2312 13.3763 87.4724 13.5643 87.7774 13.6991C88.086 13.8338 88.4513 13.9048 88.8698 13.9048C89.3238 13.9048 89.7068 13.8303 90.0225 13.6778C90.3382 13.5253 90.5793 13.3231 90.746 13.0642C90.9127 12.8088 90.9943 12.5216 90.9943 12.2024C90.9943 11.9257 90.9375 11.6952 90.824 11.5037C90.7106 11.3157 90.5687 11.1596 90.3949 11.0355"></path>
<path fill="black" d="M98.0487 8.16264C97.7543 7.99594 97.3748 7.91437 96.9137 7.91437H94.924V13.8019H95.6369V11.6526H96.9243C97.3819 11.6526 97.7578 11.5675 98.0522 11.4008C98.3466 11.2341 98.5629 11.0071 98.7048 10.7234C98.8467 10.4396 98.9176 10.124 98.9176 9.77639C98.9176 9.42881 98.8467 9.1167 98.7048 8.83296C98.5629 8.55277 98.3466 8.32933 98.0522 8.16264M98.0806 10.4112C97.9919 10.5992 97.8536 10.7446 97.6621 10.8546C97.4705 10.9645 97.2152 11.0177 96.8995 11.0177H95.6334V8.54568H96.8889C97.2081 8.54568 97.467 8.59888 97.6585 8.70528C97.8536 8.81168 97.9919 8.9571 98.0806 9.14507C98.1692 9.3295 98.2118 9.54231 98.2118 9.77639C98.2118 10.0105 98.1692 10.2233 98.0806 10.4112Z"></path>
<path fill="black" d="M106.525 8.20165C106.135 7.95693 105.688 7.83279 105.185 7.83279C104.681 7.83279 104.238 7.95693 103.844 8.20165C103.454 8.44637 103.145 8.7975 102.922 9.24793C102.698 9.70191 102.585 10.2375 102.585 10.8581C102.585 11.4788 102.698 12.0179 102.922 12.4683C103.145 12.9188 103.454 13.2699 103.844 13.5146C104.234 13.7593 104.681 13.8835 105.185 13.8835C105.688 13.8835 106.135 13.7593 106.525 13.5146C106.915 13.2699 107.224 12.9223 107.447 12.4683C107.671 12.0144 107.784 11.4788 107.784 10.8581C107.784 10.2375 107.671 9.70191 107.447 9.24793C107.224 8.7975 106.915 8.44637 106.525 8.20165ZM106.841 12.1491C106.671 12.5003 106.444 12.7663 106.153 12.9436C105.862 13.1209 105.543 13.2131 105.185 13.2131C104.826 13.2131 104.507 13.1245 104.216 12.9436C103.929 12.7627 103.699 12.4967 103.528 12.1491C103.358 11.798 103.273 11.3689 103.273 10.8581C103.273 10.3474 103.358 9.91826 103.528 9.56713C103.699 9.21601 103.926 8.95001 104.216 8.76912C104.504 8.58824 104.826 8.49958 105.185 8.49958C105.543 8.49958 105.866 8.58824 106.153 8.76912C106.44 8.95001 106.671 9.21601 106.841 9.56713C107.011 9.91826 107.096 10.3474 107.096 10.8581C107.096 11.3689 107.011 11.798 106.841 12.1491Z"></path>
<path fill="black" d="M114.857 11.2731C115.151 11.1206 115.367 10.9113 115.509 10.6418C115.651 10.3722 115.722 10.0672 115.722 9.71964C115.722 9.37206 115.651 9.0635 115.509 8.7904C115.367 8.51731 115.147 8.30451 114.853 8.14845C114.559 7.9924 114.179 7.91437 113.722 7.91437H111.732V13.8019H112.445V11.5001H113.732C113.785 11.5001 113.832 11.4965 113.881 11.493L115.126 13.7984H115.956L114.626 11.3689C114.711 11.3405 114.789 11.3086 114.86 11.2696M112.445 8.54568H113.697C114.016 8.54568 114.271 8.59534 114.463 8.6911C114.654 8.78686 114.796 8.92518 114.885 9.10251C114.974 9.27985 115.016 9.48556 115.016 9.71964C115.016 9.95372 114.974 10.1594 114.885 10.3261C114.796 10.4964 114.658 10.6276 114.466 10.7198C114.275 10.812 114.019 10.8581 113.704 10.8581H112.438V8.54568H112.445Z"></path>
<path fill="black" d="M119.34 8.54568H121.191V13.8019H121.904V8.54568H123.755V7.91437H119.34V8.54568Z"></path>
<path fill="black" d="M131.001 11.039C130.827 10.9185 130.646 10.8227 130.458 10.7518C130.27 10.6808 130.1 10.6241 129.944 10.5851L129.345 10.4255C129.235 10.3971 129.114 10.3581 128.987 10.312C128.855 10.2659 128.731 10.2056 128.614 10.1311C128.497 10.0566 128.398 9.96439 128.323 9.85089C128.249 9.7374 128.21 9.60262 128.21 9.44657C128.21 9.25859 128.263 9.0919 128.373 8.94294C128.479 8.79398 128.632 8.68048 128.827 8.59536C129.022 8.51024 129.249 8.46768 129.508 8.46768C129.866 8.46768 130.164 8.54925 130.412 8.70885C130.657 8.872 130.799 9.09545 130.831 9.38628H131.522C131.512 9.08835 131.42 8.82235 131.249 8.59181C131.076 8.35773 130.842 8.1733 130.547 8.03853C130.253 7.90375 129.916 7.83636 129.536 7.83636C129.157 7.83636 128.82 7.90375 128.518 8.04207C128.213 8.1804 127.972 8.37192 127.795 8.61664C127.614 8.86491 127.525 9.15219 127.525 9.48204C127.525 9.87927 127.66 10.1985 127.926 10.4432C128.196 10.6879 128.557 10.8759 129.018 11.0107L129.742 11.2164C129.948 11.2731 130.143 11.3405 130.32 11.4185C130.497 11.4966 130.643 11.5959 130.753 11.7165C130.863 11.837 130.916 11.9966 130.916 12.1953C130.916 12.4081 130.852 12.596 130.724 12.7556C130.597 12.9152 130.427 13.0394 130.21 13.128C129.994 13.2167 129.749 13.2628 129.476 13.2628C129.242 13.2628 129.026 13.2274 128.823 13.1564C128.621 13.0855 128.455 12.9791 128.323 12.8337C128.192 12.6883 128.118 12.5074 128.096 12.2839H127.359C127.383 12.6067 127.479 12.8904 127.657 13.1316C127.834 13.3763 128.075 13.5643 128.38 13.6991C128.689 13.8338 129.054 13.9048 129.472 13.9048C129.926 13.9048 130.31 13.8303 130.629 13.6778C130.944 13.5253 131.186 13.3231 131.352 13.0642C131.519 12.8053 131.601 12.5216 131.601 12.2024C131.601 11.9257 131.544 11.6952 131.43 11.5037C131.317 11.3157 131.175 11.1596 131.001 11.0355"></path>
<path fill="black" d="M140.368 12.7095H140.311L139.056 7.91437H138.251L136.999 12.7095H136.942L135.711 7.91437H134.984L136.594 13.8019H137.332L138.63 9.10961H138.676L139.978 13.8019H140.712L142.322 7.91437H141.599L140.368 12.7095Z"></path>
<path fill="black" d="M146.674 11.1702H149.33V10.5354H146.674V8.54568H149.515V7.91437H145.961V13.8019H149.561V13.1706H146.674V11.1702Z"></path>
<path fill="black" d="M155.211 7.91437L153.047 13.8019H153.796L154.388 12.1349H156.768L157.36 13.8019H158.109L155.945 7.91437H155.211ZM154.612 11.5036L155.555 8.84715H155.601L156.544 11.5036H154.612Z"></path>
<path fill="black" d="M166 13.8019L164.67 11.3724C164.755 11.344 164.833 11.3121 164.904 11.2731C165.198 11.1206 165.415 10.9113 165.557 10.6418C165.699 10.3722 165.769 10.0672 165.769 9.71964C165.769 9.37206 165.699 9.0635 165.557 8.7904C165.415 8.51731 165.195 8.30451 164.901 8.14845C164.606 7.9924 164.227 7.91437 163.769 7.91437H161.779V13.8019H162.492V11.5001H163.78C163.833 11.5001 163.879 11.4965 163.929 11.493L165.174 13.7984H166.004L166 13.8019ZM162.492 8.54568H163.744C164.063 8.54568 164.319 8.59534 164.51 8.6911C164.702 8.78686 164.844 8.92518 164.932 9.10251C165.021 9.27985 165.064 9.48556 165.064 9.71964C165.064 9.95372 165.021 10.1594 164.932 10.3261C164.844 10.4964 164.705 10.6276 164.514 10.7198C164.322 10.812 164.067 10.8581 163.751 10.8581H162.485V8.54568H162.492Z"></path>
</g>
<defs>
<clipPath id="clip0_2941_229329">
<rect transform="translate(0 0.537231)" fill="white" height="20.9256" width="166"></rect>
</clipPath>
</defs>
</svg>