<?xml version="1.0"?>
<svg xmlns="http://www.w3.org/2000/svg" xmlns:xlink="http://www.w3.org/1999/xlink" width="494.7pt" height="388.7pt" viewBox="0 0 494.7 388.7" version="1.1">
<defs>
<clipPath id="clip1">
  <path d="M 0 0 L 494.699219 0 L 494.699219 388.699219 L 0 388.699219 Z M 0 0 "></path>
</clipPath>
</defs>
<g id="surface1">
<g clip-path="url(#clip1)" clip-rule="nonzero">
<path style=" stroke:none;fill-rule:evenodd;fill:rgb(0%,25.097656%,56.443787%);fill-opacity:1;" d="M 247.398438 -0.078125 C 383.96875 -0.078125 494.71875 86.964844 494.71875 194.300781 C 494.71875 301.636719 383.96875 388.679688 247.398438 388.679688 C 110.828125 388.679688 0.078125 301.636719 0.078125 194.300781 C 0.078125 86.964844 110.828125 -0.078125 247.398438 -0.078125 Z M 387.949219 139.125 L 375.273438 122.902344 L 365.921875 126.613281 L 354.554688 112.0625 L 414.171875 93.375 L 426.300781 108.902344 L 393.753906 162.238281 L 382.109375 147.332031 Z M 395.589844 128.355469 L 408.171875 110.3125 L 387.648438 118.191406 Z M 311.632813 23.855469 L 333.183594 33.902344 L 326.464844 70.03125 L 349.78125 41.644531 L 371.253906 51.65625 L 346.539063 104.664063 L 333.160156 98.425781 L 352.007813 58.007813 L 322.78125 93.585938 L 310.675781 87.9375 L 319.179688 42.699219 L 300.335938 83.117188 L 286.921875 76.859375 Z M 210.84375 17.570313 L 230.914063 17.222656 L 243.0625 36.757813 L 254.523438 16.808594 L 274.46875 16.460938 L 252.324219 50.839844 L 252.753906 75.335938 L 234.644531 75.652344 L 234.214844 51.15625 Z M 133.65625 47.492188 L 177.546875 27.027344 L 182.816406 38.34375 L 155.347656 51.152344 L 159.277344 59.582031 L 184.761719 47.699219 L 189.804688 58.511719 L 164.316406 70.394531 L 169.1875 80.835938 L 197.464844 67.648438 L 203.058594 79.660156 L 158.371094 100.496094 Z M 110.785156 148.898438 L 65.980469 111.304688 L 85.34375 88.230469 C 88.929688 83.957031 92.046875 80.988281 94.675781 79.355469 C 97.304688 77.703125 100.195313 77.015625 103.351563 77.300781 C 106.496094 77.574219 109.492188 78.917969 112.339844 81.308594 C 114.839844 83.398438 116.527344 85.726563 117.449219 88.292969 C 118.359375 90.871094 118.59375 93.558594 118.171875 96.347656 C 117.882813 98.132813 117.121094 100.25 115.855469 102.691406 C 117.796875 101.507813 119.351563 100.769531 120.546875 100.472656 C 121.328125 100.277344 122.730469 100.195313 124.746094 100.230469 C 126.769531 100.277344 128.230469 100.398438 129.160156 100.628906 L 147.765625 104.828125 L 134.636719 120.472656 L 114.734375 116.378906 C 112.183594 115.835938 110.324219 115.699219 109.171875 115.992188 C 107.652344 116.40625 106.351563 117.257813 105.296875 118.519531 L 104.269531 119.738281 L 122.453125 134.996094 Z M 95.800781 112.628906 L 100.699219 106.789063 C 101.226563 106.164063 102.050781 104.777344 103.171875 102.621094 C 103.753906 101.546875 103.910156 100.398438 103.652344 99.1875 C 103.382813 97.980469 102.761719 96.964844 101.78125 96.140625 C 100.335938 94.921875 98.839844 94.457031 97.296875 94.726563 C 95.746094 94.988281 93.914063 96.382813 91.796875 98.910156 L 86.691406 104.988281 Z M 221.230469 340.988281 C 213.808594 340.011719 206.390625 337.960938 198.96875 334.828125 C 191.554688 304.324219 194.070313 275.53125 207.492188 248.617188 C 199.914063 252.722656 192.339844 256.828125 184.757813 260.933594 C 178.890625 263.65625 176.527344 261.121094 175.757813 256.199219 C 174.246094 247.105469 176.046875 241.328125 177.652344 235.355469 C 179.074219 236.460938 180.117188 238.648438 181.914063 238.671875 C 193.480469 238.820313 197.242188 234.820313 196.128906 231.566406 C 193.363281 223.511719 184.796875 226.566406 178.128906 229.199219 C 174.398438 230.667969 172.746094 233.921875 171.492188 237.722656 C 161.023438 234.832031 152.449219 230.269531 150.652344 219.722656 C 150.738281 216.433594 151.84375 213.90625 153.96875 212.144531 C 157.183594 210.25 161.015625 207.019531 157.476563 205.125 C 155.269531 203.191406 153.503906 208.496094 149.703125 210.25 C 143.097656 213.300781 137.648438 208.347656 142.597656 202.199219 C 152.824219 189.496094 166.285156 179.777344 178.128906 168.566406 C 187.140625 152.28125 206.367188 140.636719 229.285156 130.671875 C 231.640625 119.007813 244.171875 111.351563 257.453125 108.644531 C 255.5625 110.855469 249.195313 114.5625 249.191406 117.402344 C 252.503906 115.667969 258.179688 113.308594 261.492188 114.09375 C 256.769531 118.355469 254.878906 122.621094 255.808594 126.882813 C 265.285156 119.839844 275.464844 118.726563 284.9375 122.371094 C 281.074219 122.929688 276.269531 125.371094 273.589844 127.109375 C 277.53125 126.445313 284.308594 127.472656 288.253906 129.953125 C 284.15625 130.433594 280.761719 132.015625 278.546875 135.640625 C 309.753906 142.484375 336.046875 155.78125 359.074219 175.199219 C 370.34375 208.921875 370.886719 241.882813 355.757813 273.722656 C 310.546875 273.316406 336.28125 168.960938 284.472656 165.722656 C 300.066406 172.136719 313.226563 193.394531 311.171875 232.71875 C 309.675781 261.285156 326.726563 283.320313 344.863281 291.722656 C 338.027344 304.375 325.738281 316.039063 310.285156 327.25 C 273.320313 305.464844 276.628906 271.640625 285.652344 232.039063 C 294.347656 193.894531 278.855469 178.871094 263.628906 169.75 C 295.410156 204.722656 269.6875 236.679688 265.285156 276.09375 C 262.726563 298.976563 268.921875 319.527344 283.757813 339.566406 C 272.074219 343.46875 260.65625 344.296875 248.972656 344.785156 C 229.300781 330.261719 224.503906 287.789063 234.617188 271.601563 C 265.671875 221.914063 268.882813 204.339844 246.617188 176.25 C 251.800781 171.855469 254.351563 166.101563 248.21875 157.578125 C 241.9375 148.851563 233.546875 149.445313 227.390625 154.355469 C 224.476563 156.679688 226.746094 160.164063 229.828125 159.652344 C 233.003906 159.125 235.984375 155.320313 238.835938 156.816406 C 243.023438 159.023438 243.671875 160.984375 245.671875 165.277344 C 247.171875 168.503906 244.359375 173.019531 239.410156 173.78125 C 264.273438 196.371094 254.9375 226.140625 229.285156 263.777344 C 214.070313 286.097656 209.976563 312.382813 221.230469 340.988281 Z M 192.640625 169.121094 C 191.300781 171.796875 190.921875 174.472656 192.640625 177.148438 C 195.128906 175.617188 197.605469 174.34375 200.089844 173.324219 C 197.605469 171.921875 195.128906 170.523438 192.640625 169.121094 Z M 247.433594 83.734375 C 322.464844 83.734375 383.308594 145.359375 383.308594 221.347656 C 383.308594 297.339844 322.464844 358.964844 247.433594 358.964844 C 172.40625 358.964844 111.558594 297.339844 111.558594 221.347656 C 111.558594 145.359375 172.40625 83.734375 247.433594 83.734375 Z M 247.433594 94.320313 C 316.691406 94.320313 372.859375 151.203125 372.859375 221.347656 C 372.859375 291.496094 316.691406 348.378906 247.433594 348.378906 C 178.175781 348.378906 122.011719 291.496094 122.011719 221.347656 C 122.011719 151.203125 178.175781 94.320313 247.433594 94.320313 Z M 446.105469 125.078125 C 455.53125 145.929688 460.714844 168.625 460.714844 192.367188 C 460.714844 294.367188 365.1875 377.085938 247.398438 377.085938 C 129.609375 377.085938 34.085938 294.367188 34.085938 192.367188 C 34.085938 168.648438 39.253906 145.972656 48.667969 125.132813 L 72.757813 169.5625 C 67.222656 184.195313 64.226563 199.773438 64.226563 215.941406 C 64.226563 300.65625 146.253906 369.359375 247.398438 369.359375 C 348.546875 369.359375 430.570313 300.65625 430.570313 215.941406 C 430.570313 198.292969 427.003906 181.347656 420.449219 165.566406 Z M 247.398438 7.648438 C 374.578125 7.648438 477.71875 91.234375 477.71875 194.300781 C 477.71875 297.367188 374.578125 380.953125 247.398438 380.953125 C 120.21875 380.953125 17.082031 297.367188 17.082031 194.300781 C 17.082031 91.234375 120.21875 7.648438 247.398438 7.648438 Z M 247.398438 7.648438 "></path>
</g>
</g>
</svg>